grf
version=1
nRows=7
nColumns=37
inDegrees=no
endheader
time	ground_force_1_vx	ground_force_1_vy	ground_force_1_vz	ground_force_1_px	ground_force_1_py	ground_force_1_pz	ground_moment_1_mx	ground_moment_1_my	ground_moment_1_mz	ground_force_2_vx	ground_force_2_vy	ground_force_2_vz	ground_force_2_px	ground_force_2_py	ground_force_2_pz	ground_moment_2_mx	ground_moment_2_my	ground_moment_2_mz	ground_force_3_vx	ground_force_3_vy	ground_force_3_vz	ground_force_3_px	ground_force_3_py	ground_force_3_pz	ground_moment_3_mx	ground_moment_3_my	ground_moment_3_mz	ground_force_4_vx	ground_force_4_vy	ground_force_4_vz	ground_force_4_px	ground_force_4_py	ground_force_4_pz	ground_moment_4_mx	ground_moment_4_my	ground_moment_4_mz
      0.00000000	      0.00000000	     -0.00000000	      0.00000000	      0.00000000	      0.00000000	      0.00000000	      0.00000000	      0.00000000	      0.00000000	     12.67467594	     22.64589882	   -333.02185059	   -334.65012289	  -1039.99779078	      0.00000000	      0.00000000	      0.00000000	    864.04857947	     -3.63023771	    -75.16175811	   -583.78149414	   -314.92955622	   -698.83309414	      0.00000000	      0.00000000	     -0.00000000	  -3451.13043215	      0.00000000	     -0.00000000	      0.00000000	      0.00000000	      0.00000000	      0.00000000	      0.00000000	      0.00000000	      0.00000000
      0.01000000	      0.00000000	     -0.00000000	      0.00000000	      0.00000000	      0.00000000	      0.00000000	      0.00000000	      0.00000000	      0.00000000	     13.39493561	     22.35171127	   -314.70977783	   -334.45138741	  -1039.35878015	      0.00000000	      0.00000000	      0.00000000	    928.27013068	     -2.74982758	    -78.57920050	   -596.59210205	   -315.08463056	   -700.35043617	      0.00000000	      0.00000000	     -0.00000000	  -3692.88471673	      0.00000000	     -0.00000000	      0.00000000	      0.00000000	      0.00000000	      0.00000000	      0.00000000	      0.00000000	      0.00000000
      0.02000000	      0.00000000	     -0.00000000	      0.00000000	      0.00000000	      0.00000000	      0.00000000	      0.00000000	      0.00000000	      0.00000000	     14.24089813	     21.15666008	   -298.22940063	   -333.96749431	  -1039.91205859	      0.00000000	      0.00000000	      0.00000000	   1133.50157683	     -3.30236290	    -81.60923738	   -615.17889404	   -314.24845743	   -698.56913182	      0.00000000	      0.00000000	     -0.00000000	  -3511.64168135	      0.00000000	     -0.00000000	      0.00000000	      0.00000000	      0.00000000	      0.00000000	      0.00000000	      0.00000000	      0.00000000
      0.03000000	      0.00000000	     -0.00000000	      0.00000000	      0.00000000	      0.00000000	      0.00000000	      0.00000000	      0.00000000	      0.00000000	     14.07595921	     20.11133003	   -281.10574341	   -335.17569483	  -1039.88575900	      0.00000000	      0.00000000	     -0.00000000	   1005.61425315	     -3.89015502	    -83.92520871	   -627.82629395	   -314.37146739	   -698.29329898	      0.00000000	      0.00000000	     -0.00000000	  -3614.15451331	      0.00000000	     -0.00000000	      0.00000000	      0.00000000	      0.00000000	      0.00000000	      0.00000000	      0.00000000	      0.00000000
      0.04000000	      0.00000000	     -0.00000000	      0.00000000	      0.00000000	      0.00000000	      0.00000000	      0.00000000	      0.00000000	      0.00000000	     13.75729370	     19.24588013	   -266.27276611	   -334.39284484	  -1037.60825244	      0.00000000	      0.00000000	      0.00000000	    929.16392862	     -4.15656981	    -85.60288965	   -638.92224121	   -314.21810403	   -698.25639213	      0.00000000	      0.00000000	     -0.00000000	  -3737.78827460	      0.00000000	     -0.00000000	      0.00000000	      0.00000000	      0.00000000	      0.00000000	      0.00000000	      0.00000000	      0.00000000
      0.05000000	      0.00000000	     -0.00000000	      0.00000000	      0.00000000	      0.00000000	      0.00000000	      0.00000000	      0.00000000	      0.00000000	     13.75079441	     18.24700356	   -254.54473877	   -335.02748305	  -1040.57363323	      0.00000000	      0.00000000	      0.00000000	    977.56801282	     -4.22021196	    -87.01573144	   -647.95080566	   -314.09247549	   -698.08601061	      0.00000000	      0.00000000	     -0.00000000	  -3821.29493165	      0.00000000	     -0.00000000	      0.00000000	      0.00000000	      0.00000000	      0.00000000	      0.00000000	      0.00000000	      0.00000000
      0.06000000	      0.00000000	     -0.00000000	      0.00000000	      0.00000000	      0.00000000	      0.00000000	      0.00000000	      0.00000000	      0.00000000	     13.29236603	     17.75512886	   -242.89173889	   -333.91788482	  -1037.64144992	      0.00000000	      0.00000000	      0.00000000	   1140.66581280	     -4.51806071	    -87.53913077	   -656.15344238	   -314.15306696	   -698.75314678	      0.00000000	      0.00000000	     -0.00000000	  -3755.38201127	      0.00000000	     -0.00000000	      0.00000000	      0.00000000	      0.00000000	      0.00000000	      0.00000000	      0.00000000	      0.00000000
